<svg class="svg-icon" style="width: 1em; height: 1em;vertical-align: middle;fill: currentColor;overflow: hidden;" viewBox="0 0 1024 1024" version="1.1" xmlns="http://www.w3.org/2000/svg"><path d="M702.51460835 427.73720937c18.61675488 8.99445191 39.50024628 14.03926755 61.56176751 14.03926755 78.25483852 0 141.69109744-63.43755346 141.69109744-141.69239198 0-78.25354398-63.43625893-141.69239198-141.69109744-141.69239198-22.06152123 0-42.94501262 5.04481565-61.56176751 14.03926755 47.41893689 22.91073833 80.13191902 71.45980713 80.13191902 127.65312443 0 56.19461183-32.71298213 104.74368063-80.13191902 127.65312443zM764.07637586 490.99741108c-21.29515457 0-41.92621101 2.82338797-61.56176751 8.08698058 101.12544617 27.11022048 175.58858208 119.38490848 175.58858208 229.06077993 0 64.91332709-26.09141886 88.9192448-68.3438535 96.63339836 109.11015822 4.93219082 191.46479945 18.71125618 191.46479944-96.63339836 0-130.97102602-106.17543997-237.14776051-237.14776051-237.14776051zM250.39323339 441.77647692c22.06152123 0 42.94371808-5.04481565 61.56047296-14.03926755-47.41893689-22.90944379-80.13191902-71.45851259-80.13191901-127.65312443 0-56.1933173 32.71298213-104.7423861 80.13191901-127.65312443-18.61675488-8.99315737-39.50024628-14.03926755-61.56047296-14.03926755-78.25613307 0-141.69239198 63.43755346-141.69239198 141.69239198-0.00129454 78.25483852 63.43625893 141.69239198 141.69239198 141.69239198zM311.95370635 499.08309712a237.49081315 237.49081315 0 0 0-61.56047296-8.08698059c-130.97361509 0-237.14905505 106.1767345-237.14905506 237.14776054 0 115.34594907 82.35464123 101.56558917 191.46479945 96.63339834-42.25243465-7.71415357-68.34255897-31.72136581-68.34255897-96.63339834-0.00129454-109.67587145 74.46184139-201.94926491 175.58728754-229.06077995z"  /><path d="M512.2369005 251.6657645m-177.21970031 0a177.2197003 177.2197003 0 1 0 354.43940061 0 177.2197003 177.2197003 0 1 0-354.43940061 0Z"  /><path d="M512.2369005 490.44723232c-163.81216743 0-296.61108148 132.79891405-296.61108148 296.61108147 0 163.81087289 132.79761952 119.39008663 296.61108148 119.39008665s296.61108148 44.42078625 296.61108148-119.39008665c0-163.81216743-132.79891405-296.61108148-296.61108148-296.61108147z"  /></svg>