<svg class="svg-icon" style="width: 1em; height: 1em;vertical-align: middle;fill: currentColor;overflow: hidden;" viewBox="0 0 1024 1024" version="1.1" xmlns="http://www.w3.org/2000/svg"><path d="M874.24 150.08C749.44 25.28 576-5.12 489.92 82.24L60.16 512a96 96 0 0 0 0 135.68l316.48 316.48a96 96 0 0 0 135.68 0L942.08 534.4c87.36-86.4 56.96-259.52-67.84-384.32z m-238.72 439.36a47.68 47.68 0 0 1-67.52 0 49.28 49.28 0 0 1-9.92-15.36 213.44 213.44 0 0 0-40.96-57.28c-19.84-19.84-48-37.44-64-22.4-10.24 10.24 0 29.12 24.32 70.72 32 49.6 76.48 124.8 10.24 192C444.16 800 378.24 800 320 759.04l-15.68 15.68a41.28 41.28 0 0 1-57.92-58.56l15.68-15.68a315.84 315.84 0 0 1-42.24-73.92 50.24 50.24 0 0 1 10.56-53.76 47.36 47.36 0 0 1 67.84 0 50.24 50.24 0 0 1 11.2 17.28 211.2 211.2 0 0 0 48.32 73.92c41.6 41.6 56.32 27.2 64 20.8s-13.76-43.84-26.56-64c-32-51.2-76.48-128-13.12-192a128 128 0 0 1 163.84-12.8l17.28-17.28a41.28 41.28 0 0 1 58.24 58.24l-15.04 15.04a291.84 291.84 0 0 1 39.36 62.08 46.72 46.72 0 0 1-10.24 55.36z m160-224a96 96 0 1 1 0-135.68 96 96 0 0 1-0.32 135.04z" fill="#231F20" /></svg>